<?xml version="1.0" encoding="UTF-8" standalone="yes"?>
<svg xmlns="http://www.w3.org/2000/svg" xmlns:xlink="http://www.w3.org/1999/xlink" xmlns:svg="http://www.w3.org/2000/svg" xmlns:inkscape="http://www.inkscape.org/namespaces/inkscape" xmlns:sodipodi="http://sodipodi.sourceforge.net/DTD/sodipodi-0.dtd" xmlns:ns1="http://sozi.baierouge.fr" xmlns:dc="http://purl.org/dc/elements/1.1/" xmlns:cc="http://web.resource.org/cc/" xmlns:rdf="http://www.w3.org/1999/02/22-rdf-syntax-ns#" version="1.1" viewBox="0.0 0.0 437.0 487.0" fill="none" stroke="none" stroke-linecap="square" stroke-miterlimit="10">
  <clipPath id="p.0">
    <path d="m0 0l437.0 0l0 487.0l-437.0 0l0 -487.0z" clip-rule="nonzero"/>
  </clipPath>
  <g clip-path="url(#p.0)">
    <path fill="#000000" fill-opacity="0.0" d="m0 0l437.5013 0l0 487.5013l-437.5013 0z" fill-rule="nonzero"/>
    <path fill="#96d7f3" d="m161.3661 100.81291l0 0c0 -49.31346 43.649673 -89.28992 97.49428 -89.28992l0 0c53.844604 0 97.49429 39.97646 97.49429 89.28992l0 0c0 49.31346 -43.64969 89.28992 -97.49429 89.28992l0 0c-53.844604 0 -97.49428 -39.976456 -97.49428 -89.28992z" fill-rule="nonzero"/>
    <path fill="#96d7f3" d="m254.33209 121.587425l0 0c0 -44.85498 39.351013 -81.21713 87.892975 -81.21713l0 0c48.54193 0 87.892944 36.36215 87.892944 81.21713l0 0c0 44.85499 -39.351013 81.21714 -87.892944 81.21714l0 0c-48.54196 0 -87.892975 -36.362152 -87.892975 -81.21714z" fill-rule="nonzero"/>
    <path fill="#96d7f3" d="m182.14627 229.42438l0 0c0 -49.31346 43.649673 -89.28992 97.49429 -89.28992l0 0c53.844604 0 97.49426 39.976456 97.49426 89.28992l0 0c0 49.313446 -43.64966 89.28992 -97.49426 89.28992l0 0c-53.84462 0 -97.49429 -39.97647 -97.49429 -89.28992z" fill-rule="nonzero"/>
    <path fill="#96d7f3" d="m62.186478 121.587425l0 0c0 -40.729767 34.22159 -73.747765 76.436066 -73.747765l0 0c20.272095 0 39.713913 7.7698326 54.048462 21.60022c14.334534 13.830391 22.387604 32.588425 22.387604 52.147545l0 0c0 40.729774 -34.221603 73.747765 -76.436066 73.747765l0 0c-42.214478 0 -76.436066 -33.01799 -76.436066 -73.747765z" fill-rule="nonzero"/>
    <path fill="#96d7f3" d="m63.006447 218.8713l0 0c0 -49.31346 43.64968 -89.28992 97.494286 -89.28992l0 0c53.844604 0 97.49429 39.976456 97.49429 89.28992l0 0c0 49.313477 -43.64969 89.28992 -97.49429 89.28992l0 0c-53.844604 0 -97.494286 -39.97644 -97.494286 -89.28992z" fill-rule="nonzero"/>
    <path fill="#96d7f3" d="m147.56561 283.87762l0 0c0 -35.154404 30.822296 -63.652695 68.84354 -63.652695l0 0c38.021225 0 68.84354 28.498291 68.84354 63.652695l0 0c0 35.15442 -30.822311 63.65271 -68.84354 63.65271l0 0c-38.02124 0 -68.84354 -28.498291 -68.84354 -63.65271z" fill-rule="nonzero"/>
    <path fill="#c5843b" d="m85.020996 273.01312l47.08661 0l0 68.62991l-47.08661 0z" fill-rule="nonzero"/>
    <path fill="#c5843b" d="m18.375328 217.37007l0 0c0 -50.010025 40.37898 -90.55117 90.18898 -90.55117l0 0c23.919594 0 46.85952 9.540184 63.77323 26.521828c16.913712 16.981644 26.415741 40.013687 26.415741 64.02934l0 0c0 50.010056 -40.378983 90.55119 -90.18897 90.55119l0 0c-49.81 0 -90.18898 -40.541138 -90.18898 -90.55119z" fill-rule="nonzero"/>
    <path fill="#000000" d="m21.045183 234.88977l-5.591115 -46.288727l36.35356 -51.813644l34.95641 -17.81102l25.166298 -24.288712l0 25.908134l29.362785 -17.813652l0 29.146988l23.771652 -14.572182l0 22.669289l26.565979 32.38321l4.1939545 25.97113l-18.175522 -21.11287l-40.550034 -16.860886l-61.522377 0l-39.150368 24.955368z" fill-rule="nonzero"/>
    <path fill="#c5843b" d="m23.469921 239.94156l0 0c-11.873614 -4.86467 -18.468006 -17.206528 -14.990645 -28.055984c3.4773607 -10.849472 15.803771 -16.391693 28.020912 -12.598816z" fill-rule="nonzero"/>
    <path fill="#000000" d="m71.564064 213.43869l0 0c0 -10.235519 8.602043 -18.53305 19.213203 -18.53305l0 0c5.0956573 0 9.982613 1.952591 13.585793 5.4282074c3.6031723 3.4756165 5.627411 8.189575 5.627411 13.104843l0 0c0 10.235535 -8.602043 18.533066 -19.213203 18.533066l0 0c-10.61116 0 -19.213203 -8.297531 -19.213203 -18.533066z" fill-rule="nonzero"/>
    <path fill="#ffffff" d="m88.2971 204.59985l0 0c0 -3.6958313 3.0973053 -6.6918793 6.91803 -6.6918793l0 0c1.8347702 0 3.5943985 0.70503235 4.8917847 1.9600067c1.2973785 1.2549744 2.026245 2.957077 2.026245 4.7318726l0 0c0 3.695816 -3.097313 6.691864 -6.91803 6.691864l0 0c-3.8207245 0 -6.91803 -2.996048 -6.91803 -6.691864z" fill-rule="nonzero"/>
    <path stroke="#000000" stroke-width="2.0" stroke-linejoin="round" stroke-linecap="butt" d="m88.2971 204.59985l0 0c0 -3.6958313 3.0973053 -6.6918793 6.91803 -6.6918793l0 0c1.8347702 0 3.5943985 0.70503235 4.8917847 1.9600067c1.2973785 1.2549744 2.026245 2.957077 2.026245 4.7318726l0 0c0 3.695816 -3.097313 6.691864 -6.91803 6.691864l0 0c-3.8207245 0 -6.91803 -2.996048 -6.91803 -6.691864z" fill-rule="nonzero"/>
    <path fill="#000000" d="m129.21756 214.18846l0 0c0 -10.598648 8.691269 -19.190536 19.412506 -19.190536l0 0c5.148514 0 10.086166 2.0218506 13.726715 5.6207733c3.6405487 3.5989227 5.685791 8.480118 5.685791 13.569763l0 0c0 10.598633 -8.691269 19.190536 -19.412506 19.190536l0 0c-10.721237 0 -19.412506 -8.591904 -19.412506 -19.190536z" fill-rule="nonzero"/>
    <path fill="#ffffff" d="m145.96068 205.46004l0 0c0 -3.8269348 3.1294403 -6.9292755 6.989792 -6.9292755l0 0c1.8538055 0 3.6316986 0.7300415 4.9425354 2.029541c1.3108368 1.2994843 2.0472565 3.061966 2.0472565 4.8997345l0 0c0 3.8269348 -3.129425 6.9292755 -6.989792 6.9292755l0 0c-3.8603516 0 -6.989792 -3.1023407 -6.989792 -6.9292755z" fill-rule="nonzero"/>
    <path stroke="#000000" stroke-width="2.0" stroke-linejoin="round" stroke-linecap="butt" d="m145.96068 205.46004l0 0c0 -3.8269348 3.1294403 -6.9292755 6.989792 -6.9292755l0 0c1.8538055 0 3.6316986 0.7300415 4.9425354 2.029541c1.3108368 1.2994843 2.0472565 3.061966 2.0472565 4.8997345l0 0c0 3.8269348 -3.129425 6.9292755 -6.989792 6.9292755l0 0c-3.8603516 0 -6.989792 -3.1023407 -6.989792 -6.9292755z" fill-rule="nonzero"/>
    <path fill="#8a5c29" d="m105.25496 234.88979l27.01001 0.5252228l-2.0275269 5.7609863l-6.0754776 4.7160187l-8.780022 0l-6.7525024 -3.143097z" fill-rule="nonzero"/>
    <path fill="#000000" d="m174.05257 194.905l2.4151917 -7.618225l-12.887405 -9.482788l-22.735214 -0.21081543l21.85408 6.2770386z" fill-rule="nonzero"/>
    <path fill="#000000" d="m69.96581 188.18321l-2.4151993 -7.618225l12.887405 -9.482788l22.735207 -0.21081543l-21.854073 6.2770386z" fill-rule="nonzero"/>
    <path fill="#ffffff" d="m129.21892 286.01047c6.177429 -1.5140991 -12.739502 -18.250732 -22.700317 -20.083954c-9.960808 -1.8332214 -40.847916 5.7373657 -37.06453 9.084686c3.7833862 3.347351 53.587433 12.513397 59.764847 10.999268z" fill-rule="nonzero"/>
    <path stroke="#8a5c29" stroke-width="2.0" stroke-linejoin="round" stroke-linecap="butt" d="m129.21892 286.01047c6.177429 -1.5140991 -12.739502 -18.250732 -22.700317 -20.083954c-9.960808 -1.8332214 -40.847916 5.7373657 -37.06453 9.084686c3.7833862 3.347351 53.587433 12.513397 59.764847 10.999268z" fill-rule="nonzero"/>
    <path fill="#8a5c29" d="m60.028095 240.8568l0 0c0 -0.80799866 0.85274506 -1.4629974 1.9046555 -1.4629974l0 0c1.0519142 0 1.9046555 0.6549988 1.9046555 1.4629974l0 0c0 0.8079834 -0.85274124 1.4629974 -1.9046555 1.4629974l0 0c-1.0519104 0 -1.9046555 -0.65501404 -1.9046555 -1.4629974z" fill-rule="nonzero"/>
    <path fill="#8a5c29" d="m69.01658 247.217l0 0c0 -0.80799866 0.85274506 -1.4629974 1.9046555 -1.4629974l0 0c1.051918 0 1.9046555 0.6549988 1.9046555 1.4629974l0 0c0 0.8079834 -0.8527374 1.4629974 -1.9046555 1.4629974l0 0c-1.0519104 0 -1.9046555 -0.65501404 -1.9046555 -1.4629974z" fill-rule="nonzero"/>
    <path fill="#8a5c29" d="m77.08862 237.56392l0 0c0.71074677 -0.50180054 1.817009 -0.30874634 2.4709015 0.43119812l0 0c0.6538925 0.7399597 0.6077957 1.7465973 -0.10295105 2.2483978l0 0c-0.7107544 0.5018158 -1.8170166 0.3087616 -2.470909 -0.43119812l0 0c-0.6538925 -0.73994446 -0.6077957 -1.7465973 0.10295868 -2.2483978z" fill-rule="nonzero"/>
    <path fill="#8a5c29" d="m85.906815 242.61496l0 0c0 -0.80799866 0.8527374 -1.4629974 1.9046555 -1.4629974l0 0c1.0519104 0 1.9046478 0.6549988 1.9046478 1.4629974l0 0c0 0.80799866 -0.8527374 1.4629974 -1.9046478 1.4629974l0 0c-1.051918 0 -1.9046555 -0.6549988 -1.9046555 -1.4629974z" fill-rule="nonzero"/>
    <path fill="#8a5c29" d="m65.20727 233.5649l0 0c0 -0.80799866 0.85274506 -1.4629974 1.9046555 -1.4629974l0 0c1.051918 0 1.9046555 0.6549988 1.9046555 1.4629974l0 0c0 0.8079834 -0.8527374 1.4629974 -1.9046555 1.4629974l0 0c-1.0519104 0 -1.9046555 -0.65501404 -1.9046555 -1.4629974z" fill-rule="nonzero"/>
    <path fill="#8a5c29" d="m50.340694 244.89278l0 0c-0.3127327 -0.756958 0.2327156 -1.6394958 1.2182922 -1.9712067l0 0c0.9855728 -0.33169556 2.0380592 0.013046265 2.350788 0.7700043l0 0c0.3127327 0.756958 -0.2327156 1.6394958 -1.2182922 1.9712067l0 0c-0.9855728 0.33169556 -2.0380592 -0.013046265 -2.350788 -0.7700043z" fill-rule="nonzero"/>
    <path fill="#8a5c29" d="m176.5779 244.29588l0 0c0.12915039 0.7975769 -0.6079407 1.5804749 -1.646347 1.7486572l0 0c-1.0383911 0.16816711 -1.9848785 -0.34207153 -2.1140137 -1.1396484l0 0c-0.12915039 -0.7975769 0.60795593 -1.5804749 1.646347 -1.7486572l0 0c1.0383911 -0.16816711 1.9848785 0.34205627 2.1140137 1.1396484z" fill-rule="nonzero"/>
    <path fill="#8a5c29" d="m166.68834 239.45467l0 0c0.12915039 0.7975769 -0.60795593 1.5804749 -1.646347 1.7486572l0 0c-1.0383911 0.16816711 -1.9848785 -0.34207153 -2.1140137 -1.1396484l0 0c-0.12915039 -0.7975769 0.6079407 -1.5804749 1.646347 -1.7486572l0 0c1.0383911 -0.16816711 1.9848785 0.34205627 2.1140137 1.1396484z" fill-rule="nonzero"/>
    <path fill="#8a5c29" d="m160.2629 250.27388l0 0c-0.6214142 0.608963 -1.7443237 0.5952606 -2.5080872 -0.03060913l0 0c-0.76374817 -0.62586975 -0.8791504 -1.6269226 -0.2577362 -2.2358856l0 0c0.62142944 -0.6089783 1.7443237 -0.5952759 2.5080872 0.03060913l0 0c0.76374817 0.62586975 0.8791504 1.6269073 0.2577362 2.2358856z" fill-rule="nonzero"/>
    <path fill="#8a5c29" d="m150.75069 246.69772l0 0c0.12913513 0.79759216 -0.60795593 1.5804901 -1.646347 1.7486572l0 0c-1.0384064 0.16818237 -1.9848785 -0.34205627 -2.114029 -1.1396332l0 0c-0.12913513 -0.79759216 0.60795593 -1.5804901 1.646347 -1.7486572l0 0c1.0384064 -0.16818237 1.9848785 0.34205627 2.114029 1.1396332z" fill-rule="nonzero"/>
    <path fill="#8a5c29" d="m172.63075 252.32184l0 0c0.12913513 0.79759216 -0.60795593 1.5804901 -1.646347 1.7486572l0 0c-1.0383911 0.16818237 -1.9848785 -0.34205627 -2.1140137 -1.1396332l0 0c-0.12915039 -0.79759216 0.6079407 -1.5804901 1.646347 -1.7486572l0 0c1.0383911 -0.16818237 1.9848633 0.34205627 2.1140137 1.1396332z" fill-rule="nonzero"/>
    <path fill="#8a5c29" d="m185.49576 238.76312l0 0c0.4296875 0.6972046 0.032318115 1.6555786 -0.8875885 2.1405792l0 0c-0.91989136 0.4850006 -2.0139465 0.31295776 -2.4436493 -0.38424683l0 0c-0.42970276 -0.69721985 -0.032318115 -1.6555786 0.88757324 -2.1405792l0 0c0.91989136 -0.4850006 2.0139618 -0.31295776 2.4436646 0.38424683z" fill-rule="nonzero"/>
    <path fill="#1f8110" d="m55.68504 425.7743c-0.2637787 5.8416443 -3.5520554 27.595337 -1.5826759 35.049866c1.9693756 7.4544983 4.0393677 6.756317 13.398949 9.677155c9.359581 2.9208374 27.459755 7.51355 42.75853 7.8477783c15.298775 0.334198 39.577423 -3.6176758 49.03412 -5.8425293c9.456696 -2.2248535 6.2563477 -1.4216919 7.7060394 -7.5065613c1.4496918 -6.0848694 0.82676697 -24.168854 0.99212646 -29.002625" fill-rule="nonzero"/>
    <path fill="#1f8110" d="m80.662315 316.42664c5.931465 2.3625793 4.877739 9.152435 12.653221 10.7034c7.775482 1.5509949 25.301239 1.561676 33.99968 -1.397522c8.698441 -2.9592285 13.642975 -13.389099 18.190964 -16.357697c4.5479736 -2.968628 5.1421204 -1.2116394 9.096893 -1.4539795c3.9547882 -0.24230957 12.720505 -2.4232788 14.631805 0c1.9113007 2.4232788 -2.2429504 -11.016663 -3.1640167 14.539612c-0.9210663 25.556274 14.376892 116.14975 -2.3623505 138.7981c-16.739258 22.648376 -79.750465 18.538208 -98.07314 -2.907898c-18.322678 -21.446136 -10.5448265 -101.536224 -11.86293 -125.76889c-1.3181038 -24.232666 -0.5273361 -16.934662 3.9543114 -19.627197c4.4816437 -2.692505 17.0041 1.1094971 22.935566 3.4720764z" fill-rule="nonzero"/>
    <path fill="#31ca1a" d="m186.38123 312.88934c-2.3138275 -6.572174 -6.391037 -6.206482 -11.238464 -7.3018494c-4.8474274 -1.0953369 -14.210449 -2.4348145 -17.846115 0.7296753c-3.635666 3.1644897 -3.3065948 6.086609 -3.9679108 18.257202c-0.6613312 12.170624 0.22016907 40.040253 0 54.76642c-0.22018433 14.726166 -1.210968 25.436584 -1.3210602 33.590546c-0.11009216 8.153992 -2.9751434 12.534119 0.66052246 15.3333435c3.6356812 2.7991943 15.424591 2.9221191 21.153503 1.4619446c5.7289276 -1.4602051 10.796143 -0.73010254 13.220062 -10.223114c2.4239044 -9.492981 0.99276733 -34.321075 1.3234253 -46.734894c0.33065796 -12.413818 0.9911804 -17.768158 0.66052246 -27.748047c-0.33065796 -9.979858 -0.33065796 -25.559052 -2.6444855 -32.131226z" fill-rule="nonzero"/>
    <path fill="#c5843b" d="m163.84732 333.2772c1.487854 -2.7694397 1.1650696 -12.845856 0.9243164 -18.90683c-0.24073792 -6.0609436 -0.983078 -14.164001 -2.3687897 -17.458984c-1.3856964 -3.294983 -4.59494 -4.5276794 -5.9454193 -2.3108826c-1.3504944 2.2167969 -2.055313 9.547302 -2.1574554 15.611725c-0.10215759 6.064392 -0.046676636 16.930634 1.5445557 20.77478c1.591217 3.8441772 6.5149384 5.0596313 8.002792 2.2901917z" fill-rule="nonzero"/>
    <path fill="#c5843b" d="m160.94406 341.45053c1.2151947 -3.2615051 -0.86021423 -13.277039 -2.1613464 -19.286377c-1.301117 -6.0093384 -3.516861 -13.907654 -5.645401 -16.769623c-2.1285553 -2.8619385 -5.972473 -3.0643005 -7.1258545 -0.40213013c-1.1533813 2.66214 -0.7077637 10.251617 0.20558167 16.375061c0.9133606 6.1234436 2.8200378 17.018494 5.274536 20.365662c2.4545135 3.347168 8.237289 2.9789124 9.452484 -0.28259277z" fill-rule="nonzero"/>
    <path fill="#c5843b" d="m158.17479 341.33643c0.4454956 -3.4667969 -3.3069 -12.950134 -5.6076202 -18.628937c-2.3007202 -5.6788025 -5.7704773 -13.041473 -8.196671 -15.443909c-2.426178 -2.4024658 -5.854431 -1.8328247 -6.3604584 1.0292358c-0.5060272 2.862091 1.3436279 10.273895 3.3243256 16.143127c1.9806976 5.8692627 5.753128 16.255585 8.5598755 19.072327c2.8067322 2.816742 7.8350677 1.2949524 8.280548 -2.1718445z" fill-rule="nonzero"/>
    <path fill="#c5843b" d="m159.25377 338.05878c-0.67097473 -3.564392 -6.9345093 -11.0998535 -10.733078 -15.588318c-3.7985687 -4.4884644 -9.157135 -10.090942 -12.058319 -11.342468c-2.9011688 -1.2515564 -5.779541 0.828949 -5.348755 3.8331604c0.4308014 3.0042114 4.3613434 9.376221 7.933502 14.192169c3.5721588 4.8159485 10.131668 13.219208 13.499451 14.703461c3.3677673 1.4842224 7.378174 -2.233612 6.707199 -5.798004z" fill-rule="nonzero"/>
    <path fill="#c5843b" d="m164.77446 331.11768l-20.661697 4.7676086l7.702301 31.329956l20.661697 -4.767578z" fill-rule="nonzero"/>
    <path fill="#c5843b" d="m153.69437 340.59378c2.837387 -0.07571411 9.303329 -5.6664124 13.16127 -9.072357c3.8579407 -3.4059753 8.732941 -8.349121 9.986389 -11.363464c1.2534485 -3.0143738 -0.08721924 -6.6354065 -2.4656982 -6.7226257c-2.3784637 -0.08721924 -7.7142944 3.1092834 -11.80513 6.199341c-4.0908356 3.0900574 -11.260376 8.847809 -12.739838 12.341003c-1.4794769 3.4931946 1.0256348 8.693817 3.8630066 8.618103z" fill-rule="nonzero"/>
    <path fill="#c5843b" d="m150.48997 409.65222c2.2559967 -2.0281677 10.61763 -3.0489807 15.648407 -3.6113281c5.030777 -0.5623779 11.767792 -0.8480835 14.53627 0.2371521c2.7684631 1.0852661 3.8761444 4.47406 2.074585 6.274353c-1.8015594 1.800293 -7.8594513 3.5845032 -12.883926 4.5274353c-5.024475 0.9429321 -14.033691 2.368103 -17.262924 1.1301575c-3.2292175 -1.2379456 -4.3684235 -6.5295715 -2.1124115 -8.55777z" fill-rule="nonzero"/>
    <path fill="#c5843b" d="m153.83917 416.4219c2.3423615 -1.8963318 10.7708435 -2.316101 15.8398285 -2.5159607c5.0689697 -0.19985962 11.838913 0.00793457 14.574036 1.316803c2.7351227 1.3088684 3.714264 4.8382263 1.8366852 6.5363464c-1.8775635 1.6981201 -8.024612 3.064972 -13.102097 3.6524353c-5.0774994 0.5874939 -14.171417 1.370697 -17.362823 -0.127594c-3.1914062 -1.4982605 -4.1279907 -6.9656982 -1.7856293 -8.86203z" fill-rule="nonzero"/>
    <path fill="#c5843b" d="m154.4918 418.52808c2.7405243 -1.1086121 10.995682 0.53240967 15.94722 1.5655518c4.9515533 1.0331726 11.445587 2.8303833 13.762054 4.6333923c2.316452 1.8029785 2.3780975 5.139435 0.13671875 6.1846313c-2.241394 1.0451965 -8.528046 0.7809143 -13.585037 0.086517334c-5.0569916 -0.694397 -14.046738 -2.1745605 -16.756897 -4.2529297c-2.7101593 -2.0783386 -2.2445984 -7.108551 0.49594116 -8.217163z" fill-rule="nonzero"/>
    <path fill="#c5843b" d="m151.19052 419.38028c2.913681 -0.6303406 11.00415 2.3125 15.850174 4.1251526c4.8460236 1.8126221 11.140747 4.6198425 13.225998 6.750702c2.0852509 2.13089 1.6876068 5.384369 -0.71447754 6.034546c-2.4020844 0.650177 -8.699112 -0.6329651 -13.698044 -2.1335144c-4.998932 -1.5005493 -13.851608 -4.406952 -16.295547 -6.8697815c-2.4439392 -2.462799 -1.2817688 -7.2767944 1.631897 -7.9071045z" fill-rule="nonzero"/>
    <path fill="#c5843b" d="m157.0702 409.80347l-0.7104645 20.3732l-26.556458 -1.0075378l0.71047974 -20.3732z" fill-rule="nonzero"/>
    <path fill="#c5843b" d="m149.43106 421.2231c-0.7171631 -2.8676758 2.6979523 -10.12738 4.8010864 -14.468323c2.103119 -4.3409424 5.3564606 -9.911774 7.817688 -11.577332c2.4612274 -1.6655884 6.2080536 -0.79977417 6.9496613 1.5838928c0.7415924 2.3836975 -0.75601196 8.184998 -2.5000763 12.718231c-1.7440643 4.5332336 -5.1195526 12.523865 -7.9642944 14.48111c-2.8447266 1.9572754 -8.386902 0.13006592 -9.104065 -2.7375793z" fill-rule="nonzero"/>
    <path fill="#31ca1a" d="m75.91771 317.4064c-5.1421204 -11.249786 -22.871601 -4.700348 -28.473305 -0.7322693c-5.6017036 3.968048 -4.6109924 8.003479 -5.1369057 24.54068c-0.52591705 16.53717 -3.751999 59.052032 1.9814186 74.6824c5.7334175 15.630371 16.734035 15.920837 32.41909 19.099731c15.685051 3.1789246 50.75029 1.5599365 61.691208 -0.026245117c10.940918 -1.5861816 3.1635437 -5.596222 3.9543152 -9.490814c0.7907715 -3.8945618 0.7234802 -10.286957 0.79029846 -13.876648c0.06680298 -3.5896606 8.70459 -6.2138977 -0.38946533 -7.6614075c-9.094055 -1.4475098 -43.43203 2.2712097 -54.174904 -1.0236206c-10.742874 -3.2948303 -8.17205 -4.4934387 -10.282341 -18.745392c-2.1102905 -14.251984 2.7627106 -55.516632 -2.3794098 -66.76642z" fill-rule="nonzero"/>
    <path fill="#31ca1a" d="m170.0337 340.04156c-1.9530029 -4.771637 -1.2659912 -4.931305 -6.3251953 -5.1102295c-5.059204 -0.17892456 -19.925537 0.89328 -24.030045 4.036743c-4.104492 3.1434937 -2.0278473 5.2803955 -0.59698486 14.824158c1.4308777 9.543732 6.9164886 30.989502 9.18219 42.438324c2.2657013 11.448822 3.1464844 19.917328 4.4120026 26.254578c1.2655029 6.3372803 -0.64105225 10.2187195 3.181076 11.769043c3.822113 1.550293 14.71376 -0.36090088 19.751648 -2.4671936c5.0378876 -2.1062927 9.83223 -2.402008 10.475647 -10.170593c0.64341736 -7.7686157 -4.8388824 -26.765106 -6.615158 -36.44095c-1.7762604 -9.675873 -2.4698944 -14.091888 -4.0424347 -21.614197c-1.572525 -7.5223083 -3.4397583 -18.748016 -5.392746 -23.519684z" fill-rule="nonzero"/>
    <path fill="#000000" fill-opacity="0.0" d="m271.91473 126.81674l62.834625 0l0 140.18896l-62.834625 0z" fill-rule="nonzero"/>
    <path fill="#72a3b9" d="m295.94598 176.70737q18.21875 0 25.921875 6.1875q7.71875 6.171875 7.71875 15.21875q0 11.4375 -9.828125 18.625q-3.734375 2.796875 -9.046875 5.046875l-2.140625 0.9375q-0.921875 0.390625 -1.796875 5.515625q-0.859375 5.125 -0.859375 7.375q-0.65625 0.671875 -3.78125 1.546875q-3.125 0.859375 -5.1875 0.859375q-2.0625 0 -3.125 -0.265625q-1.46875 -2.40625 -1.46875 -10.375q0 -7.984375 0.671875 -10.25q21.0 -5.046875 21.0 -17.015625q0 -10.375 -19.140625 -10.375q-6.78125 0 -9.84375 1.328125q-0.796875 -1.328125 -0.796875 -5.578125q0 -4.265625 1.1875 -7.1875q3.59375 -1.59375 10.515625 -1.59375zm-3.796875 85.84375q-2.59375 -2.59375 -2.59375 -6.3125q0 -3.734375 2.59375 -6.3125q2.59375 -2.59375 6.3125 -2.59375q3.734375 0 6.328125 2.59375q2.59375 2.578125 2.59375 6.3125q0 3.71875 -2.59375 6.3125q-2.59375 2.59375 -6.328125 2.59375q-3.71875 0 -6.3125 -2.59375z" fill-rule="nonzero"/>
    <path fill="#000000" fill-opacity="0.0" d="m309.19156 52.162197l133.22836 -35.968506l36.503937 135.33858l-133.22836 35.968506z" fill-rule="nonzero"/>
    <path fill="#72a3b9" d="m385.3457 89.22409q1.00354 1.8006668 0.94122314 2.5296097q-0.062316895 0.7289429 -0.14093018 1.3975372q-0.4310913 1.2816696 -0.4378357 1.7366486q-0.0067443848 0.45498657 -0.18301392 0.7615204q-0.14370728 0.4272232 -0.30368042 0.7941055q-0.15997314 0.3668747 -0.30368042 0.7940979q-0.036499023 1.3046112 -0.664917 2.5748062q-0.62838745 1.270195 -0.83721924 1.456047q-0.07858276 0.66859436 -0.32669067 1.1887436q-0.24810791 0.5201416 -0.47994995 1.1006317q-0.18972778 1.216507 -1.0710144 2.7491837q-0.33343506 1.6437302 -1.2147217 3.1764069q-0.8812561 1.5326691 -1.1496277 3.417778q-1.1781921 1.871788 -1.4140015 3.8775787q-0.7375488 1.1054535 -0.71850586 2.1361084q-0.7701111 0.9847717 -0.9598694 2.201271q-0.1897583 1.216507 -0.9598694 2.2012787q-0.24533081 1.4904556 -0.8574524 2.8209991q-0.6121216 1.3305359 -0.88998413 2.7003021q-0.35647583 2.0383759 -1.0519714 3.7798462q0.7621765 1.8658295 1.3969421 4.219223q0.6347656 2.3534088 1.1881714 4.405075q0.13018799 0.48275757 0.12820435 1.195404q-0.0019836426 0.7126465 -0.38702393 1.2050323q-1.4807129 0.27027893 -1.5688477 0.42355347q-0.48269653 0.13031006 -0.7010498 -0.19915771q-0.21832275 -0.32948303 -0.7010498 -0.19915771q-0.48272705 0.13031006 -0.7633667 0.5297699q-0.28067017 0.39945984 -0.5220337 0.46463013q-0.60339355 0.16290283 -1.9403992 0.0059509277q-0.8352051 0.74339294 -1.9213257 1.0366211q-1.2067871 0.32580566 -1.9729614 -0.114730835q-0.36203003 0.0977478 -0.4779358 0.3880005q-0.11593628 0.29023743 -0.96069336 0.5182953q-0.8447571 0.22807312 -1.8522644 -0.14730835q-1.2869873 -2.371521 -1.78479 -4.697159q-0.49780273 -2.3256226 -1.5108948 -4.641632q-0.38110352 -0.9329071 -0.60894775 -1.7777252q-0.22787476 -0.84480286 -0.5438843 -1.5363464q-0.315979 -0.6915436 -0.5112915 -1.4156647q1.5021362 -4.0308533 2.6700134 -8.100929q1.1678772 -4.0700836 2.976471 -7.924721q1.4005127 -2.9676132 2.70813 -6.0396194q1.3075867 -3.0720062 2.7080994 -6.0396194q0.34298706 -1.1283951 0.9320984 -2.064293q0.5891113 -0.9358978 0.81140137 -2.0317154q-0.40411377 -0.5382767 -1.5255737 -1.336052q-1.1214294 -0.79777527 -1.8225098 -0.996933q-0.45968628 -0.26432037 -0.9308777 -0.33132172q-0.47122192 -0.06699371 -0.89834595 -0.2106247q-1.3465576 -0.6722717 -1.5438232 -0.68374634q-0.19729614 -0.011474609 -0.47122192 -0.06700134q-0.7010498 -0.19915771 -1.6760254 -0.45384216q-0.97494507 -0.25468445 -2.0428162 -0.6137619q-1.0678406 -0.35908508 -1.9384155 -0.7066879q-0.87054443 -0.34761047 -1.3302612 -0.61193085q-1.1416626 0.56718445 -1.4155884 0.5116577q-0.85824585 1.138031 -1.6351318 2.5777817q-0.77685547 1.4397507 -1.0221863 2.930214q-0.9559021 0.77597046 -1.2337646 2.1457443q-0.68200684 0.8315048 -0.9694214 1.6859436q-0.28738403 0.8544464 -0.84872437 1.6533661q-0.7050171 1.2261429 -1.1226196 1.5978394q-0.41760254 0.37169647 -0.8161621 1.7740479q-0.3850708 0.49238586 -0.7538452 1.0451126q-0.3687744 0.55272675 -0.4473877 1.2213211q-0.5057373 0.5249634 -1.1274109 1.3401718q-0.62164307 0.81520844 -1.3457031 1.0106964q-1.1798096 -1.4941406 -2.3866272 -1.168335q-1.0400391 -0.4960556 -1.0495911 -1.011383q-0.009521484 -0.51532745 -0.49224854 -0.38500977q-0.9098511 -0.013305664 -1.2210693 -0.4471817q-0.31124878 -0.43388367 -1.0353088 -0.23839569q-2.0054932 -0.2354126 -3.4822388 -1.3904343q0.2548523 -0.9751282 0.14767456 -1.8525238q0.6264038 -0.5575409 0.60736084 -1.5882034q0.5613098 -0.79891205 1.3171387 -2.5566788q0.75582886 -1.7577591 1.5834961 -3.729126q0.82769775 -1.9713745 1.4465637 -3.756897q0.61886597 -1.7855225 0.87371826 -2.7606506q1.2337952 -2.145752 2.435028 -4.4121857q1.2012329 -2.2664337 2.8946838 -4.1478577q0.14370728 -0.4272232 0.84198 -1.1983795q0.6982727 -0.7711563 1.5172424 -1.5748901q0.8189392 -0.8037338 1.593811 -1.530838q0.77490234 -0.7271042 1.1925049 -1.0988007q1.7871704 -0.094062805 2.2373352 -0.3450775q0.4501648 -0.25100708 1.0535583 -0.4139099q0.9654541 -0.260643 1.4807129 -0.27027893q1.4386292 -0.9062958 2.1118774 -0.5701599q0.6732788 0.33613586 1.6387024 0.07549286q1.1607666 0.46347046 2.0083008 1.2057266q0.8475342 0.74224854 1.9201355 1.3589935q1.9594727 1.0246964 4.0789185 1.682518q2.1194153 0.657814 4.1995544 1.6499329q0.5803833 0.23173523 1.0563354 0.5564041q0.47598267 0.32466125 0.9682312 0.7096634q0.8868408 0.40795135 1.7573853 0.7555618q0.87057495 0.34761047 1.8780823 0.7229767q1.6204529 0.72779846 3.2571716 1.5159378q1.6367188 0.788147 3.3222656 1.7573166q1.8292236 0.5419464 3.3980713 0.118400574zm-11.63504 64.383026q0.6454773 0.473114 1.9574585 1.7373352q1.3120117 1.2642365 2.6565552 2.6491547q1.3445435 1.3849335 2.3988953 2.6539764q1.0543823 1.2690582 1.2496948 1.9931793q0.13018799 0.4827423 0.30447388 0.888855q0.17428589 0.40611267 0.30447388 0.88887024q-0.07858276 0.66859436 -0.5402832 1.1169281q-0.46166992 0.44831848 -0.9674072 0.97328186q-0.99798584 0.13996887 -1.1857605 0.6438141q-0.18774414 0.5038605 -0.17822266 1.0191956q-1.3830566 0.6323395 -1.6291809 0.4398346q-0.24612427 -0.19250488 -0.4874878 -0.12734985q-0.48269653 0.13032532 -0.89553833 0.75968933q-0.4128723 0.629364 -0.70980835 0.96847534q-0.36203003 0.0977478 -0.76812744 0.27212524q-0.4060974 0.17436218 -0.83325195 0.030731201q-0.8256836 1.258728 -1.3036499 1.6467133q-0.4779358 0.38798523 -1.0487976 0.6715698q-0.7661438 -0.44052124 -1.98526 -1.600357q-1.2190857 -1.1598358 -1.6788025 -1.4241638q-1.5187988 -1.7910309 -3.0098572 -3.71904q-1.4910278 -1.9280243 -3.0098267 -3.7190552q-0.13973999 -0.9980774 0.47039795 -1.6159668q0.61013794 -0.6178894 1.3342285 -0.81336975q0.65896606 -0.43685913 0.7375488 -1.1054535q0.07861328 -0.66859436 0.80267334 -0.8640747q0.68200684 -0.8314972 1.6752319 -1.229126q0.9932251 -0.39761353 1.4013062 -1.2846527q1.5458069 -0.028900146 2.353241 -0.63531494q0.8074341 -0.6064148 1.1043701 -0.9455261l1.4807129 -0.27027893z" fill-rule="nonzero"/>
    <path fill="#000000" fill-opacity="0.0" d="m221.65154 -34.000053l136.12599 22.519684l-22.897644 138.29921l-136.12599 -22.519684z" fill-rule="nonzero"/>
    <path fill="#72a3b9" d="m252.26584 137.80164l-10.572662 -1.9549408q-2.7285461 -0.45140076 -4.9198914 -0.6080322l-2.0964966 -0.34683228q-2.6010437 -3.7086182 -1.7230682 -9.011436l1.6896667 -7.7183456q5.5462036 -16.566933 12.379227 -23.687798q1.8572083 -2.4167786 6.643158 -6.9305496q13.783051 -12.939545 14.594666 -17.84156q0.5053406 -3.0522003 -4.2549744 -5.7718697q-1.7276611 -1.3310776 -2.4676208 -1.4534874q-0.7245178 -0.1198616 -1.8313599 0.15631485q-1.1043091 0.26075745 -1.8122864 1.1889q-6.501251 7.508339 -11.786713 8.534431q-5.3178406 -0.40462494 -8.13887 -0.871315l-20.69635 -4.421608l0.6916504 -4.1775017q3.6834717 -16.890926 17.840591 -28.359062q14.15712 -11.468136 32.027863 -9.398626q2.3017883 0.15907097 4.6449585 0.54670334q17.234497 2.8511505 28.065765 15.966715q10.831268 13.115566 8.118256 29.501865q-2.4476013 14.783127 -14.822327 25.912636q-2.7765198 2.7081451 -7.2990723 6.1093597q-4.5045776 3.3883438 -6.680725 5.435623q-7.782776 7.787285 -12.646698 20.99871q-1.3712769 2.8297577 -1.4963379 3.5850983q-0.12249756 0.7399292 -0.021636963 1.3742676l-0.73501587 4.43956q-7.09787 -0.27148438 -12.693695 -1.1972198zm-25.6055 31.25557q-0.06686401 -7.248749 1.1735077 -14.740509l2.98172 -14.948166q7.357666 -1.776062 17.346893 -0.1235199q9.989243 1.6525574 15.387619 5.3013153l-1.5818787 7.641159q-3.475006 14.866562 -3.942047 17.68753l-0.73760986 4.4549713l-4.4704895 -0.739563l-22.1651 -3.8727112l-3.9926147 -0.6605072z" fill-rule="nonzero"/>
    <path fill="#000000" fill-opacity="0.0" d="m182.33313 226.7082l133.00787 -36.59842l37.228363 135.11812l-133.00789 36.59842z" fill-rule="nonzero"/>
    <path fill="#72a3b9" d="m251.10635 258.31787q0.9463043 3.4345398 0.020065308 6.7198486q-0.91116333 3.281189 -2.6714935 6.245056q-1.7494202 2.944641 -4.1209717 5.3960266q-2.3564758 2.447235 -3.253769 3.1316833q1.1833496 2.8831177 2.4865723 7.6131287q0.43164062 1.5666199 0.9316864 3.6167908q0.51512146 2.046051 0.4686737 4.230377q-0.03138733 2.1802063 -1.1608276 4.257416q-1.1294403 2.0772095 -4.021942 2.873108q-4.9865417 1.3721008 -8.061142 -3.0811768q-0.95477295 -1.4064636 -1.9092255 -3.7529602q-0.9586029 -2.3615723 -1.7956238 -4.8700256q-0.8370056 -2.5084534 -1.488617 -4.8734436q-0.6557617 -2.380066 -1.0791016 -3.916565q-0.36938477 -1.3406677 -0.7707367 -3.3855896q-0.3862915 -2.0490723 0.20387268 -3.848236q0.646286 -1.8308105 2.3740082 -3.618866q1.723587 -1.8031311 3.3198853 -3.5388489q1.6113739 -1.7398376 2.4627075 -3.2381287q0.8513489 -1.498291 0.49856567 -2.778717q-0.28222656 -1.0243225 -1.0200958 -1.7612305q-0.7378845 -0.73690796 -1.7750549 -1.148346q-1.0371857 -0.4114685 -2.2448425 -0.5005188q-1.2076569 -0.08905029 -2.3224792 0.2177124q-2.9226227 0.8041992 -4.333374 2.2133179q-1.4107513 1.4091492 -2.3961487 3.0091553q-0.97032166 1.5958862 -2.0950012 3.3962708q-1.1096039 1.7962341 -3.7610626 2.5258179q-2.8925018 0.79589844 -5.8263245 -0.6170044q-2.9338226 -1.4129333 -3.7722015 -4.45578q-1.1621246 -4.2178345 0.46232605 -7.7925415q1.6353607 -3.5938873 4.5617065 -6.1493073q2.9221802 -2.5704956 6.3687134 -4.2967224q3.4465332 -1.7262115 6.3540955 -2.5262604q3.9922485 -1.0985107 8.623367 -0.5253601q4.626953 0.55810547 8.766754 2.4656677q4.150711 1.8883667 7.4703674 5.1722107q3.3196564 3.283844 4.506668 7.592041zm-1.2751923 47.60675q0.59350586 2.1541138 -0.05015564 3.935608q-0.6478119 1.7663879 -1.8107605 3.0749512q-1.1670837 1.2934875 -2.7230988 2.1753845q-1.5518646 0.89697266 -3.0583801 1.3115234q-2.5912018 0.7129822 -5.4437103 0.006958008q-2.856659 -0.72109985 -3.790512 -4.110443q-0.56030273 -2.0335999 0.05999756 -3.841034q0.6161499 -1.8225403 1.7884674 -3.2146912q1.1681824 -1.407196 2.7226562 -2.3535156q1.5503235 -0.96139526 3.0869598 -1.3842163q2.6363983 -0.72543335 5.450943 0.13690186q2.829605 0.8581848 3.7675934 4.2625732z" fill-rule="nonzero"/>
    <path fill="#000000" fill-opacity="0.0" d="m125.45479 40.951385l136.88188 -17.259844l17.574799 139.05511l-136.88188 17.259842z" fill-rule="nonzero"/>
    <path fill="#72a3b9" d="m145.75452 82.188934q-1.86026 0.23456573 -3.782837 -4.0113983q-1.9225769 -4.245964 -2.4358978 -8.307404q-0.11755371 -0.9300995 1.7973022 -2.352707q1.9148712 -1.4225998 5.9868317 -2.849472q4.0719757 -1.4268761 8.986191 -2.046524q19.083267 -2.4062653 20.764267 10.89418q0.47805786 3.7824097 -0.7389374 6.7391357q-1.21698 2.956726 -3.2421417 4.503479q-4.1395874 3.0102692 -7.8658295 3.5588684l-1.511383 0.25357056q0.09207153 0.72857666 0.61943054 2.2842026q0.5428467 1.5536652 0.69369507 2.7472992q0.13519287 1.0696182 -3.4198456 2.100586q-3.5569916 1.0154648 -6.2078705 1.3497238q-4.0615997 0.51213074 -5.275467 -1.3663864q-1.2138824 -1.8785248 -2.0289154 -8.327225q-0.19200134 -1.519165 5.4362335 -2.96904q2.080719 -0.6088333 3.699234 -1.8838348q1.6320801 -1.29245 1.3969727 -3.1526566q-0.23510742 -1.860199 -3.2270355 -1.482933q-2.9919434 0.3772583 -6.0844574 2.3263245q-3.0944672 1.9335709 -3.5595398 1.9922104zm12.717453 16.75943q4.511154 -0.56882477 7.045456 0.29277802q2.5497894 0.859642 3.0121613 4.518036q0.7562561 5.98365 -8.54509 7.1564865q-9.301361 1.1728363 -10.057617 -4.810814q-0.7562561 -5.98365 8.54509 -7.1564865z" fill-rule="nonzero"/>
  </g>
  <metadata>
    <rdf:RDF>
      <cc:Work>
        <dc:format>image/svg+xml</dc:format>
        <dc:type rdf:resource="http://purl.org/dc/dcmitype/StillImage"/>
        <cc:license rdf:resource="http://creativecommons.org/licenses/publicdomain/"/>
        <dc:publisher>
          <cc:Agent rdf:about="http://openclipart.org/">
            <dc:title>Openclipart</dc:title>
          </cc:Agent>
        </dc:publisher>
        <dc:title>Question Guy</dc:title>
        <dc:date>2014-03-13T14:03:13</dc:date>
        <dc:description>A question guy.</dc:description>
        <dc:source>https://openclipart.org/detail/191766/question-guy-by-scout-191766</dc:source>
        <dc:creator>
          <cc:Agent>
            <dc:title>Scout</dc:title>
          </cc:Agent>
        </dc:creator>
        <dc:subject>
          <rdf:Bag>
            <rdf:li>boy</rdf:li>
            <rdf:li>confuse</rdf:li>
            <rdf:li>confused</rdf:li>
            <rdf:li>man</rdf:li>
            <rdf:li>people</rdf:li>
            <rdf:li>ponder</rdf:li>
            <rdf:li>pondering</rdf:li>
            <rdf:li>question</rdf:li>
            <rdf:li>questions</rdf:li>
            <rdf:li>reflect</rdf:li>
            <rdf:li>think</rdf:li>
            <rdf:li>thinking</rdf:li>
          </rdf:Bag>
        </dc:subject>
      </cc:Work>
      <cc:License rdf:about="http://creativecommons.org/licenses/publicdomain/">
        <cc:permits rdf:resource="http://creativecommons.org/ns#Reproduction"/>
        <cc:permits rdf:resource="http://creativecommons.org/ns#Distribution"/>
        <cc:permits rdf:resource="http://creativecommons.org/ns#DerivativeWorks"/>
      </cc:License>
    </rdf:RDF>
  </metadata>
</svg>